<?xml version="1.0" encoding="UTF-8" standalone="no"?>
<!DOCTYPE svg PUBLIC "-//W3C//DTD SVG 1.1//EN" "http://www.w3.org/Graphics/SVG/1.1/DTD/svg11.dtd">
<svg version="1.1" xmlns="http://www.w3.org/2000/svg" xmlns:xlink="http://www.w3.org/1999/xlink" preserveAspectRatio="xMidYMid meet" viewBox="0 0 24 24" width="24" height="24"><defs><path d="M7.21 0.13L7.78 0.29L8.34 0.5L8.86 0.78L9.35 1.1L9.82 1.48L10.24 1.91L10.63 2.39L10.98 2.9L11.28 3.46L11.5 4L0.63 4L0.72 3.77L1.02 3.18L1.37 2.62L1.76 2.11L2.18 1.65L2.65 1.23L3.14 0.87L3.66 0.57L4.22 0.32L4.79 0.15L5.39 0.04L6 0L6.61 0.03L7.21 0.13ZM19.21 0.15L19.78 0.32L20.34 0.57L20.86 0.87L21.35 1.23L21.82 1.65L22.24 2.11L22.63 2.62L22.98 3.18L23.28 3.77L23.37 4L12.5 4L12.72 3.46L13.02 2.9L13.37 2.39L13.76 1.91L14.18 1.48L14.65 1.1L15.14 0.78L15.66 0.5L16.22 0.29L16.79 0.13L17.39 0.03L18 0L18.61 0.04L19.21 0.15Z" id="a5LsTcD8Uh"></path><path d="M23.88 5.75L23.97 6.47L24 7.21L23.95 8L0.05 8L0 7.21L0 7.21L0.03 6.47L0.12 5.75L0.27 5.06L0.47 4.4L0.63 4L11.5 4L11.53 4.06L11.73 4.7L11.88 5.37L11.97 6.07L12 6.81L12.03 6.07L12.12 5.37L12.27 4.7L12.47 4.06L12.5 4L23.37 4L23.53 4.4L23.73 5.06L23.73 5.06L23.88 5.75Z" id="a4dpGAaD5Y"></path><path d="M23.17 12L0.83 12L0.52 11.08L0.13 9.21L0.05 8L23.95 8L23.87 9.21L23.48 11.08L23.48 11.08L23.17 12Z" id="dxXsYif4O"></path><path d="M21.22 15.92L21.16 16L2.84 16L2.78 15.92L1.88 14.44L1.11 12.82L0.83 12L23.17 12L22.89 12.82L22.13 14.44L22.13 14.44L21.22 15.92Z" id="d3cGPJ2XDf"></path><path d="M19.12 18.52L18 19.62L17.57 20L6.43 20L6 19.62L4.88 18.52L3.8 17.28L2.84 16L21.16 16L20.2 17.28L19.12 18.52Z" id="d2DZQUeJUv"></path><path d="M14.78 22.19L13.88 22.8L13.11 23.28L12.52 23.64L12.14 23.88L12 24L11.87 23.88L11.48 23.64L10.89 23.28L10.13 22.8L9.22 22.19L8.2 21.46L7.12 20.6L6.43 20L17.57 20L16.88 20.6L15.8 21.46L15.8 21.46L14.78 22.19Z" id="a1ruxldiG4"></path></defs><g><g><g><g><g><g><use xlink:href="#a5LsTcD8Uh" opacity="1" fill="#e40303" fill-opacity="1"></use></g><g><use xlink:href="#a4dpGAaD5Y" opacity="1" fill="#ff8c00" fill-opacity="1"></use></g></g><g><use xlink:href="#dxXsYif4O" opacity="1" fill="#ffed00" fill-opacity="1"></use></g></g><g><use xlink:href="#d3cGPJ2XDf" opacity="1" fill="#008026" fill-opacity="1"></use></g></g><g><use xlink:href="#d2DZQUeJUv" opacity="1" fill="#004dff" fill-opacity="1"></use></g><g><use xlink:href="#a1ruxldiG4" opacity="1" fill="#750787" fill-opacity="1"></use></g></g></g></svg>